<svg xmlns="http://www.w3.org/2000/svg" width="44.782" height="54.597" viewBox="532.91 9299.813 44.782 54.597"><g data-name="brochures-icon"><path d="M570.451 9331.841a1.037 1.037 0 0 0-.146-.071l-10.492-4.148a1.277 1.277 0 0 1-1.117.663c-.485 0-.902-.273-1.12-.669l-6.06 2.396a1.28 1.28 0 0 1-1.213.886c-.225 0-.431-.063-.615-.163l-2.618 1.035a1.054 1.054 0 0 0-.238.132.88.88 0 0 0 0 1.422c.072.053.152.098.238.132l11.203 4.43c.266.104.563.104.83 0l11.202-4.43c.05-.02.1-.044.146-.071.564-.332.564-1.212 0-1.544Zm-6.077-1.814a.68.68 0 1 1 0 1.359.68.68 0 0 1 0-1.36Zm-3.166-1.498c.94 0 1.705.764 1.705 1.705a.348.348 0 0 1-.696 0 1.01 1.01 0 0 0-2.017 0 .348.348 0 0 1-.697 0c0-.94.765-1.705 1.705-1.705Zm-6.407 5.2a.349.349 0 0 1-.348-.348 1.235 1.235 0 0 0-2.467 0 .349.349 0 0 1-.697 0c0-1.064.866-1.93 1.93-1.93s1.93.866 1.93 1.93a.348.348 0 0 1-.348.348Zm.626-3.794a.87.87 0 0 0-.87.87.347.347 0 1 1-.697 0c0-.864.703-1.566 1.567-1.566.863 0 1.565.702 1.565 1.565a.348.348 0 1 1-.696 0 .87.87 0 0 0-.87-.869Zm9.474 3.794a.348.348 0 0 1-.348-.348 1.5 1.5 0 0 0-1.499-1.499 1.5 1.5 0 0 0-1.498 1.499.34.34 0 0 1-.055.176c.392.421.637.982.637 1.602a.348.348 0 1 1-.697 0c0-.919-.746-1.666-1.664-1.666-.919 0-1.665.747-1.665 1.666a.348.348 0 0 1-.697 0c0-.143.018-.281.042-.417a.67.67 0 0 1 .07-1.338c.189 0 .36.079.482.205.378-.431.906-.718 1.505-.786-.003-.02-.011-.037-.011-.057a1.235 1.235 0 0 0-2.467 0 .348.348 0 0 1-.697 0c0-1.064.865-1.93 1.93-1.93 1.064 0 1.93.866 1.93 1.93 0 .025-.01.048-.015.072.253.045.487.133.705.25a2.191 2.191 0 0 1 2.165-1.902c1.21 0 2.195.985 2.195 2.195a.349.349 0 0 1-.348.348Z" fill="#fff" fill-rule="evenodd" data-name="Path 472"/><path d="M572.132 9305.294v-5.481H532.91v49.114h5.561v5.482h39.222v-49.115h-5.561Zm-33.66 0v42.746h-4.687v-47.34h32.433l-27.747 4.522v.072Zm32.78-4.263v4.266h-26.708l26.709-4.266Zm-18.214 23.885a.936.936 0 1 1 0 1.871.936.936 0 0 1 0-1.871Zm-1.705-5.718a.8.8 0 1 1 1.6.002.8.8 0 0 1-1.6-.002Zm-.024 3.967a1.095 1.095 0 1 1-2.19 0 1.095 1.095 0 0 1 2.19 0Zm21.489 18.973c0 .496-.303.942-.765 1.125l-12.902 5.1a1.205 1.205 0 0 1-.89 0l-12.9-5.1a1.21 1.21 0 0 1-.765-1.125v-9.514c0-.497.303-.942.765-1.125l3.749-1.482a1.255 1.255 0 0 1-.07-.403 1.28 1.28 0 0 1 2.446-.537l5.982-2.365a1.282 1.282 0 0 1 2.498.008l12.087 4.779c.462.183.765.628.765 1.125v9.514Zm-18.547-21.696a.935.935 0 1 1 1.869 0 .935.935 0 0 1-1.87 0Zm18.547 4.12H564.9a.933.933 0 1 1 0-1.868h7.897a.933.933 0 0 1 0 1.868Zm0-3.966H561.79a.933.933 0 1 1 0-1.868h11.008a.934.934 0 0 1 0 1.868Zm0-4.4h-17.371a.934.934 0 1 1 0-1.866h17.37a.933.933 0 1 1 0 1.867Z" fill="#fff" fill-rule="evenodd" data-name="Path 473"/></g></svg>