<svg xmlns="http://www.w3.org/2000/svg" width="106.039" height="77.478" viewBox="28.685 42.954 106.039 77.478"><g data-name="Group 3422"><path d="m69.274 42.954-40.589 61.068c.997-.008 1.966-.02 2.916-.032 1.733-.021 3.4-.041 5.033-.041 7.04 0 13.488.378 22.284 2.7 15.201 4.01 25.513 3.736 28.292 3.561l36.718-61.32c-27.61 2.936-49.356-4.03-54.654-5.936Zm15.55 43.91c-4.25 6.797-12.963 9.854-19.46 6.829-6.497-3.025-8.32-10.987-4.071-17.784 4.25-6.796 27.517-19.714 27.517-19.714s.263 23.873-3.986 30.67Z" fill="#fff" fill-rule="evenodd" data-name="Path 6391"/><path d="M124.047 54.822c1.537.17 4.75.39 7.893-.25l-43.15 60.285c-13.843-.154-42.817-6.89-59.79-10.246 6.362.047 17.222.211 26.962 2.964 12.033 3.4 21.052 4.96 27.171 5.505 3.176.282 5.032.218 5.195.199l35.719-58.457Z" fill="#fff" fill-rule="evenodd" data-name="Path 6392"/><path d="m90.803 117.455 39.902-55.747c1.393.525 2.785.659 4.02.597l-41.94 58.127c-21.872-1.223-47.904-8.41-61.243-13.28-.136-.05-1.562-1.217-1.694-1.27 35.359 9.597 60.955 11.573 60.955 11.573Z" fill="#fff" fill-rule="evenodd" data-name="Path 6393"/></g></svg>