<svg id="Group_471" data-name="Group 471" xmlns="http://www.w3.org/2000/svg" width="47.689" height="32.338" viewBox="0 0 47.689 32.338">
  <path id="Path_474" data-name="Path 474" d="M1396.822,365.7l-16.643,14.642H1420.2L1403.558,365.7l-3.368,2.408Z" transform="translate(-1376.345 -348.009)" fill="#fff"/>
  <path id="Path_475" data-name="Path 475" d="M1374.153,339.79v29.527a2.645,2.645,0,0,0,.122.791l18.219-15.768L1374.4,338.663A2.67,2.67,0,0,0,1374.153,339.79Z" transform="translate(-1374.153 -338.171)" fill="#fff"/>
  <path id="Path_476" data-name="Path 476" d="M1420.284,354.34l18.219,15.768a2.671,2.671,0,0,0,.121-.791V339.79a2.68,2.68,0,0,0-.25-1.127Z" transform="translate(-1390.935 -338.171)" fill="#fff"/>
  <path id="Path_477" data-name="Path 477" d="M1380.179,337.89l16.643,14.642,2.135,1.527,1.233.881,1.232-.881,2.136-1.527L1420.2,337.89Z" transform="translate(-1376.345 -337.89)" fill="#fff"/>
</svg>
