<svg xmlns="http://www.w3.org/2000/svg" width="47.689" height="32.338" viewBox="927.155 9310.82 47.689 32.338"><g data-name="Group 471"><path d="m947.632 9328.516-16.642 14.642h40.02l-16.642-14.642-3.367 2.408-3.369-2.408Z" fill="#fff" fill-rule="evenodd" data-name="Path 474"/><path d="M927.155 9312.44v29.527c0 .274.044.54.123.79l18.218-15.767-18.09-15.678a2.67 2.67 0 0 0-.25 1.128Z" fill="#fff" fill-rule="evenodd" data-name="Path 475"/><path d="m956.504 9326.99 18.22 15.768c.077-.25.12-.517.12-.791v-29.527c0-.401-.09-.782-.249-1.128l-18.09 15.678Z" fill="#fff" fill-rule="evenodd" data-name="Path 476"/><path d="m930.99 9310.82 16.642 14.642 2.136 1.527 1.233.881 1.232-.88 2.135-1.528 16.643-14.642H930.99Z" fill="#fff" fill-rule="evenodd" data-name="Path 477"/></g></svg>