<svg id="Group_389" data-name="Group 389" xmlns="http://www.w3.org/2000/svg" width="34.5" height="56.545" viewBox="0 0 34.5 56.545">
  <g id="Group_388" data-name="Group 388">
    <path id="Path_63" data-name="Path 63" d="M306.79,377.742h-3.307v-6.166q-6.717-.682-10.022-2.664-5.829-3.563-5.727-12.146h9.2A14.047,14.047,0,0,0,298.268,362q1.33,2.077,5.216,2.7v-13.23l-2.762-.744q-6.51-1.734-9.187-4.833a11.039,11.039,0,0,1-2.676-7.468,12.832,12.832,0,0,1,1.039-5.236,11.958,11.958,0,0,1,2.915-4.059,13.323,13.323,0,0,1,5.387-3.036,27,27,0,0,1,5.283-.775V321.2h3.307v4.182a18.174,18.174,0,0,1,8.687,2.479q5.734,3.317,5.937,10.752h-8.965a10.365,10.365,0,0,0-1.011-4.028q-1.279-2.2-4.648-2.416v11.8q8.078,2.541,10.861,4.493a10.6,10.6,0,0,1,4.582,9.172q0,7.807-6.307,11.34a21.478,21.478,0,0,1-9.136,2.541Zm-3.307-45.515a6.337,6.337,0,0,0-4.4,1.441,4.981,4.981,0,0,0-1.432,3.765,4.789,4.789,0,0,0,2.148,4.121,12.735,12.735,0,0,0,3.681,1.549ZM306.79,364.6a9.159,9.159,0,0,0,3.876-1.115q2.123-1.425,2.124-4.926a5.056,5.056,0,0,0-1.99-4.214,14.95,14.95,0,0,0-4.011-1.859Z" transform="translate(-287.732 -321.196)" fill="#fff"/>
  </g>
</svg>
