<svg xmlns="http://www.w3.org/2000/svg" width="47.054" height="52.954" viewBox="663.869 9300.497 47.054 52.954"><g data-name="Group 400"><g data-name="Group 395"><path d="M677.168 9319.949c-5.286-.323-11.084-.956-13.294-2.203v5.005c.01.039.023.077.023.118.156.56 2.95 1.379 8.2 1.97a18.814 18.814 0 0 1 5.071-4.89Z" fill="#fff" fill-rule="evenodd" data-name="Path 80"/><path d="M697.621 9319.95a18.82 18.82 0 0 1 5.07 4.89c5.256-.593 8.053-1.414 8.21-1.979 0-.04.013-.076.022-.113v-5.001c-2.212 1.246-8.014 1.88-13.302 2.202Z" fill="#fff" fill-rule="evenodd" data-name="Path 81"/></g><g data-name="Group 396"><path d="M671.512 9325.729c-3.303-.375-6.215-.922-7.638-1.725v5.004c.01.04.023.077.023.12.126.45 1.976 1.07 5.431 1.603a18.577 18.577 0 0 1 2.184-5.002Z" fill="#fff" fill-rule="evenodd" data-name="Path 82"/><path d="M703.277 9325.73a18.612 18.612 0 0 1 2.183 5.002c3.46-.535 5.314-1.158 5.44-1.613 0-.04.014-.076.023-.113v-5.002c-1.424.803-4.34 1.35-7.646 1.726Z" fill="#fff" fill-rule="evenodd" data-name="Path 83"/></g><g data-name="Group 397"><path d="M668.657 9335.638c0-1.364.154-2.691.43-3.973-2.26-.35-4.152-.805-5.213-1.404v5.005c.01.04.023.077.023.12.119.424 1.75.999 4.824 1.51-.029-.418-.064-.834-.064-1.258Z" fill="#fff" fill-rule="evenodd" data-name="Path 84"/><path d="M705.7 9331.666c.277 1.281.431 2.608.431 3.972 0 .424-.035.84-.063 1.257 3.079-.512 4.713-1.09 4.832-1.518 0-.041.014-.077.023-.114v-5c-1.062.598-2.958 1.054-5.223 1.403Z" fill="#fff" fill-rule="evenodd" data-name="Path 85"/></g><g data-name="Group 398"><path d="M668.803 9337.878c-2.136-.345-3.914-.789-4.934-1.361v5.203h.01c.092.836 2.632 1.587 6.698 2.139a18.566 18.566 0 0 1-1.774-5.981Z" fill="#fff" fill-rule="evenodd" data-name="Path 86"/><path d="M705.985 9337.88a18.596 18.596 0 0 1-1.774 5.98c4.067-.552 6.607-1.304 6.698-2.14h.01v-5.203c-1.016.573-2.796 1.017-4.934 1.362Z" fill="#fff" fill-rule="evenodd" data-name="Path 87"/></g><path d="M663.873 9303.576a23.525 3.129 0 1 1 0 .1z" fill="#fff" fill-rule="evenodd" data-name="Ellipse 61"/><path d="M687.398 9313.064c15.147 0 23.233-1.742 23.502-2.718 0-.04.014-.076.023-.113v-5.002c-4.436 2.5-23.31 2.535-23.525 2.535-.216 0-19.088-.035-23.524-2.535v5.005c.01.039.023.077.023.118.269.968 8.354 2.71 23.501 2.71Z" fill="#fff" fill-rule="evenodd" data-name="Path 88"/><path d="M687.398 9314.024c-.216 0-19.088-.035-23.524-2.535v5.004c.01.04.023.077.023.12.211.758 5.244 1.988 14.695 2.487 2.625-1.4 5.62-2.2 8.802-2.2 3.183 0 6.178.8 8.803 2.2 9.456-.498 14.492-1.731 14.703-2.496 0-.04.014-.076.023-.113v-5.002c-4.436 2.5-23.31 2.535-23.525 2.535Z" fill="#fff" fill-rule="evenodd" data-name="Path 89"/><path d="M687.394 9317.824c-9.838 0-17.814 7.975-17.814 17.814 0 9.838 7.976 17.814 17.814 17.814 9.838 0 17.814-7.976 17.814-17.814 0-9.839-7.976-17.814-17.814-17.814Zm0 32.273c-7.973 0-14.459-6.487-14.459-14.46 0-7.972 6.486-14.458 14.46-14.458 7.972 0 14.458 6.486 14.458 14.459 0 7.972-6.486 14.459-14.459 14.459Z" fill="#fff" fill-rule="evenodd" data-name="Path 90"/><g data-name="Group 399"><path d="M687.99 9336.685v4.385c.583-.074 1.008-.209 1.274-.403.466-.344.699-.939.699-1.784 0-.643-.218-1.152-.654-1.526-.26-.216-.699-.44-1.32-.672Z" fill="#fff" fill-rule="evenodd" data-name="Path 91"/><path d="M687.394 9322.18c-7.42 0-13.457 6.036-13.457 13.458 0 7.42 6.037 13.457 13.457 13.457 7.421 0 13.458-6.037 13.458-13.457 0-7.422-6.037-13.459-13.458-13.459Zm3.6 20.472c-.844.524-1.846.83-3.005.92v2.255h-1.088v-2.233c-1.474-.164-2.573-.486-3.298-.965-1.279-.86-1.907-2.325-1.885-4.396h3.03c.104.942.25 1.574.437 1.895.292.501.863.827 1.716.976v-4.79l-.909-.27c-1.428-.418-2.436-1.001-3.022-1.749-.588-.747-.881-1.649-.881-2.703 0-.696.114-1.327.342-1.896a4.339 4.339 0 0 1 .959-1.47c.53-.53 1.122-.897 1.772-1.099.396-.127.976-.22 1.739-.28v-1.492h1.088v1.514c1.213.097 2.166.397 2.858.898 1.258.8 1.91 2.097 1.954 3.892h-2.95c-.06-.666-.17-1.151-.332-1.458-.281-.531-.791-.822-1.53-.875v4.274c1.772.613 2.963 1.155 3.574 1.626 1.005.785 1.508 1.892 1.508 3.32 0 1.885-.693 3.254-2.076 4.106Z" fill="#fff" fill-rule="evenodd" data-name="Path 92"/><path d="M684.983 9331.233c0 .628.235 1.125.706 1.492.262.202.666.389 1.212.56v-3.936c-.65.015-1.133.189-1.447.52-.314.334-.471.788-.471 1.364Z" fill="#fff" fill-rule="evenodd" data-name="Path 93"/></g></g></svg>