<svg xmlns="http://www.w3.org/2000/svg" width="79.972" height="89.292" viewBox="40.94 36.59 79.972 89.292"><g data-name="Group 3433"><path d="M111.632 68.278 90.465 52.031 69.297 68.278h3.64v20.13h35.056v-20.13h3.64Z" fill="#f8f8f8" fill-rule="evenodd" data-name="Path 6496"/><path d="M99.97 94.23h9.091v23.687h-9.092V94.23z" fill="#f8f8f8" fill-rule="evenodd" data-name="Rectangle 2415"/><path d="M71.54 94.23h24.887v3.743H71.54v-3.742z" fill="#f8f8f8" fill-rule="evenodd" data-name="Rectangle 2416"/><path d="M71.54 100.437h24.887v3.743H71.54v-3.743z" fill="#f8f8f8" fill-rule="evenodd" data-name="Rectangle 2417"/><path d="M71.54 106.693h24.887v3.743H71.54v-3.743z" fill="#f8f8f8" fill-rule="evenodd" data-name="Rectangle 2418"/><path d="M71.54 112.9h24.887v3.742H71.54V112.9z" fill="#f8f8f8" fill-rule="evenodd" data-name="Rectangle 2419"/><path d="M114.928 42.706H62.872c-1.978-3.64-5.837-6.116-10.262-6.116-6.435 0-11.67 5.235-11.67 11.672v71.637a5.99 5.99 0 0 0 5.984 5.984h68.004a5.99 5.99 0 0 0 5.983-5.984V48.691c0-3.3-2.685-5.985-5.983-5.985Zm-70.143 5.556c0-4.316 3.51-7.827 7.825-7.827s7.826 3.511 7.826 7.827v59.766a11.622 11.622 0 0 0-7.826-3.021 11.62 11.62 0 0 0-7.825 3.02V48.262Zm72.282 71.637c0 1.179-.96 2.139-2.14 2.139H46.925c-1.18 0-2.14-.96-2.14-2.139v-3.22c0-4.317 3.51-7.827 7.826-7.827 4.315 0 7.826 3.51 7.826 7.826a1.923 1.923 0 0 0 3.845 0V48.262c0-.584-.056-1.151-.14-1.711h50.787c1.178 0 2.139.96 2.139 2.14v71.208Z" fill="#f8f8f8" fill-rule="evenodd" data-name="Path 6497"/></g></svg>