<svg xmlns="http://www.w3.org/2000/svg" width="34.5" height="56.546"><g data-name="Group 388" style="width: 35px; height: 56px;"><path d="M19.058 56.546H15.75V50.38c-4.478-.455-7.818-1.342-10.022-2.664C1.843 45.34-.067 41.292.002 35.57h9.204c.317 2.603.761 4.348 1.33 5.236.886 1.385 2.624 2.283 5.215 2.696v-13.23l-2.762-.745c-4.34-1.156-7.403-2.767-9.186-4.833-1.784-2.065-2.677-4.555-2.677-7.467 0-1.921.347-3.666 1.04-5.237A11.958 11.958 0 0 1 5.08 7.932c1.613-1.467 3.41-2.479 5.386-3.037 1.204-.35 2.966-.609 5.284-.774V0h3.307v4.182c3.686.27 6.582 1.096 8.687 2.48 3.822 2.21 5.801 5.794 5.937 10.75h-8.965c-.18-1.838-.517-3.18-1.011-4.027-.853-1.467-2.402-2.272-4.648-2.417v11.805c5.385 1.695 9.005 3.192 10.86 4.493 3.055 2.169 4.582 5.226 4.582 9.172 0 5.205-2.102 8.985-6.306 11.34-2.568 1.445-5.613 2.292-9.136 2.54v6.228ZM15.75 11.03c-1.977.042-3.443.522-4.397 1.441-.955.92-1.433 2.174-1.433 3.765 0 1.735.717 3.109 2.148 4.12.796.558 2.023 1.075 3.682 1.55V11.03Zm3.307 32.378c1.775-.206 3.066-.578 3.876-1.115 1.415-.95 2.124-2.591 2.124-4.926 0-1.777-.663-3.18-1.99-4.214-.786-.599-2.122-1.218-4.01-1.86v12.115Z" fill="#fff" fill-rule="evenodd" data-name="Path 63"/></g></svg>