<svg xmlns="http://www.w3.org/2000/svg" width="41.42" height="41.212" viewBox="798.2 9306.394 41.42 41.212"><g data-name="Group 403"><g data-name="Group 402"><path d="m820.162 9331.57-1.287 1.316-2.283.002-.05 2.61-10.89 10.89a4.187 4.187 0 0 1-5.904 0 4.187 4.187 0 0 1 0-5.903l8.974-8.973 1.916-1.917 2.611-.05.001-2.283 1.317-1.287 5.595 5.595Z" fill="#fff" fill-rule="evenodd" data-name="Path 94"/><path d="m838.173 9306.394-5.494 4.102-.519 1.91-14.707 14.708 1.447 1.447 14.707-14.708 1.91-.518 4.103-5.495-1.447-1.446Z" fill="#fff" fill-rule="evenodd" data-name="Path 95"/><path d="M816.031 9318.321a9.087 9.087 0 0 0 .348-2.47 9.13 9.13 0 0 0-9.129-9.13 9.086 9.086 0 0 0-6.183 2.427l5.289 2.07a4.187 4.187 0 0 1 2.366 5.408 4.187 4.187 0 0 1-5.409 2.367l-5.113-2.001c.562 4.502 4.396 7.988 9.05 7.988 1.085 0 2.122-.2 3.087-.546l1.887 1.886 2.298-2.298 1.975 1.858 3.53-3.565-3.996-3.994Z" fill="#fff" fill-rule="evenodd" data-name="Path 96"/><path d="m838.014 9340.485-14.557-14.557-3.565 3.529 1.858 1.975-2.298 2.298 12.658 12.658a4.186 4.186 0 0 0 5.904 0 4.187 4.187 0 0 0 0-5.903Zm-3.477 5.153a2.569 2.569 0 1 1 .001-5.138 2.569 2.569 0 0 1 0 5.138Z" fill="#fff" fill-rule="evenodd" data-name="Path 97"/></g></g></svg>