<svg xmlns="http://www.w3.org/2000/svg" width="50" height="58.337" viewBox="794 9295.925 50 58.337"><g data-name="Group 687"><g data-name="Group 691"><path d="M819.172 9295.925c-5.034 0-9.128 4.094-9.128 9.127 0 5.034 4.094 9.129 9.128 9.129 5.033 0 9.127-4.095 9.127-9.129 0-5.033-4.094-9.127-9.127-9.127Zm-.631 7.866c.175.184.5.37.977.562.476.192.869.372 1.175.541.308.17.566.36.778.574.21.214.372.457.484.73.111.273.167.59.167.953 0 .678-.211 1.228-.633 1.65-.423.423-1.005.672-1.747.747v1.19h-.95v-1.183c-.817-.088-1.45-.378-1.898-.87-.448-.493-.673-1.147-.673-1.964h1.728c0 .474.113.838.337 1.09.226.254.55.38.972.38.35 0 .628-.092.831-.277.204-.186.305-.436.305-.75 0-.328-.09-.588-.272-.781-.182-.194-.489-.372-.923-.535-.435-.164-.81-.326-1.125-.487a3.608 3.608 0 0 1-.81-.557 2.22 2.22 0 0 1-.526-.738c-.125-.283-.188-.62-.188-1.01 0-.674.215-1.226.645-1.656.43-.43 1.002-.682 1.717-.754v-1.28h.956v1.299c.706.099 1.257.393 1.656.881s.598 1.121.598 1.899h-1.728c0-.479-.098-.837-.296-1.074a.98.98 0 0 0-.792-.355c-.327 0-.58.092-.759.278-.18.185-.27.441-.27.768 0 .302.089.546.264.73Z" fill="#fff" fill-rule="evenodd" data-name="Path 486"/><g data-name="Group 689"><g data-name="Group 687"><path d="M812.677 9331.9a1.208 1.208 0 1 1 0 .1z" fill="#fff" fill-rule="evenodd" data-name="Ellipse 64"/><path d="M809.01 9325.107a1.208 1.208 0 1 1 0 .1z" fill="#fff" fill-rule="evenodd" data-name="Ellipse 65"/><path d="M809.91 9327.813a1.031 1.031 0 1 1 0 .1z" fill="#fff" fill-rule="evenodd" data-name="Ellipse 66"/><path d="M810.035 9330.192a.88.88 0 1 1 0 .1z" fill="#fff" fill-rule="evenodd" data-name="Ellipse 67"/><path d="M811.797 9325.987a.88.88 0 1 1 0 .1z" fill="#fff" fill-rule="evenodd" data-name="Ellipse 68"/><path d="M806.887 9326.114a.752.752 0 1 1 0 .1z" fill="#fff" fill-rule="evenodd" data-name="Ellipse 69"/><path d="M812.425 9329.428a.637.637 0 1 1 0 .1z" fill="#fff" fill-rule="evenodd" data-name="Ellipse 70"/></g><g data-name="Group 688"><path d="m831.173 9338.31-12.142-4.8a1.142 1.142 0 0 0-.837 0l-12.142 4.8c-.435.172-.72.592-.72 1.06v8.953c0 .467.285.886.72 1.058l12.142 4.801c.269.106.568.106.837 0l12.142-4.8c.434-.173.72-.592.72-1.06v-8.953c0-.467-.286-.887-.72-1.058Zm-23.717.38a.973.973 0 0 1 .225-.125l10.541-4.168c.252-.1.531-.1.782 0l10.542 4.168c.048.02.094.042.138.068.339.199.459.607.366.958l-7.553-2.99a1.603 1.603 0 0 0-1.512-1.086 1.59 1.59 0 0 0-.747.193l-1.505-.595a.328.328 0 0 0-.24-.001l-2.772 1.09c-.059-.008-.117-.019-.177-.019-.45 0-.85.208-1.12.527l-7.279 2.86a.826.826 0 0 1 .311-.88Zm11.548 5.63c-.251.1-.53.1-.782 0l-10.541-4.168c-.034-.013-.063-.035-.094-.051l6.494-2.552c-.002.037-.01.071-.01.107a.328.328 0 1 0 .655 0 .819.819 0 0 1 1.636 0 .328.328 0 1 0 .656 0c0-.425-.184-.805-.473-1.074l2.067-.813 1.068.423c-.187.263-.3.581-.3.928a.328.328 0 0 0 .656 0 .95.95 0 0 1 1.898 0 .323.323 0 0 0 .584.196l7.09 2.806c-.02.01-.04.022-.062.03l-10.542 4.168Z" fill="#fff" fill-rule="evenodd" data-name="Path 487"/><path d="M813.467 9338.265a1.818 1.818 0 0 0-1.817 1.816.328.328 0 1 0 .656 0c0-.64.52-1.16 1.16-1.16.641 0 1.162.52 1.162 1.16a.328.328 0 1 0 .655 0 1.819 1.819 0 0 0-1.816-1.816Z" fill="#fff" fill-rule="evenodd" data-name="Path 488"/><path d="M822.723 9338.016a2.062 2.062 0 0 0-2.038 1.79 2.169 2.169 0 0 0-.663-.235c.005-.023.014-.044.014-.069a1.818 1.818 0 0 0-1.817-1.816 1.818 1.818 0 0 0-1.816 1.816.328.328 0 1 0 .655 0 1.162 1.162 0 0 1 2.322 0c0 .02.008.036.011.055a2.218 2.218 0 0 0-1.975 2.197.328.328 0 0 0 .655 0 1.57 1.57 0 0 1 1.567-1.567c.864 0 1.567.703 1.567 1.567a.328.328 0 0 0 .656 0 2.21 2.21 0 0 0-.6-1.507.32.32 0 0 0 .052-.166c0-.777.632-1.41 1.41-1.41.777 0 1.41.633 1.41 1.41a.328.328 0 1 0 .655 0 2.068 2.068 0 0 0-2.065-2.065Z" fill="#fff" fill-rule="evenodd" data-name="Path 489"/></g></g><g data-name="Group 690"><path d="M801.294 9309.545a24.732 24.732 0 0 0-7.226 17.531c0 3.985.958 7.908 2.775 11.421l-2.843 2.097 8.029 3.507-.977-8.707-2.776 2.047a23.133 23.133 0 0 1-2.45-10.365c0-6.144 2.385-11.93 6.715-16.293a.88.88 0 1 0-1.247-1.238Z" fill="#fff" fill-rule="evenodd" data-name="Path 490"/><path d="m844 9313.724-8.005-3.56.918 8.713 2.79-2.029a23.144 23.144 0 0 1 2.385 10.228c0 6.202-2.424 12.027-6.823 16.402a.878.878 0 1 0 1.239 1.246c4.734-4.707 7.34-10.975 7.34-17.648 0-3.927-.932-7.8-2.7-11.276l2.856-2.076Z" fill="#fff" fill-rule="evenodd" data-name="Path 491"/></g></g></g></svg>